<?xml version="1.0" encoding="utf-8"?>
<svg version="1.1" xmlns:xlink="http://www.w3.org/1999/xlink" width="662px" height="471px" xmlns="http://www.w3.org/2000/svg">
  <g transform="matrix(1 0 0 1 -710 -91 )">
    <path d="M 710 91  L 1372 91  L 1372 562  L 710 562  L 710 91  " fill-rule="nonzero" fill="#cccccc" stroke="none" />
    <path d="M 743 124  L 1339 124  L 1339 529  L 743 529  L 743 124  " fill-rule="nonzero" fill="#ffffff" stroke="none" />
    <path d="M 1089.565 232.29999999999995  C 1069.7830000000001 232.29999999999995  1054.24 216.75699999999995  1054.24 196.97499999999997  C 1054.24 177.19299999999998  1069.7830000000001 161.64999999999998  1089.565 161.64999999999998  C 1109.347 161.64999999999998  1124.89 177.19299999999998  1124.89 196.97499999999997  C 1124.89 216.75699999999995  1109.347 232.29999999999995  1089.565 232.29999999999995  " fill-rule="nonzero" fill="#cccccc" stroke="none" />
    <path d="M 755 517  L 755 307.45  L 898 212.2  L 1098.2 354.35558912386705  L 1212.6 269.35  L 1327 354.35558912386705  L 1327 517  L 755 517  " fill-rule="nonzero" fill="#169bd5" stroke="none" />
  </g>
</svg>