<?xml version="1.0" encoding="utf-8"?>
<svg version="1.1" xmlns:xlink="http://www.w3.org/1999/xlink" width="1076px" height="503px" xmlns="http://www.w3.org/2000/svg">
  <g transform="matrix(1 0 0 1 -413 -880 )">
    <path d="M 413 880  L 1489 880  L 1489 1383  L 413 1383  L 413 880  " fill-rule="nonzero" fill="#cccccc" stroke="none" />
    <path d="M 448 915  L 1454 915  L 1454 1348  L 448 1348  L 448 915  " fill-rule="nonzero" fill="#ffffff" stroke="none" />
    <path d="M 1010.245 1030.9  C 989.119 1030.9  972.52 1014.301  972.52 993.1750000000001  C 972.52 972.0490000000001  989.119 955.45  1010.245 955.45  C 1031.371 955.45  1047.97 972.0490000000001  1047.97 993.1750000000001  C 1047.97 1014.301  1031.371 1030.9  1010.245 1030.9  " fill-rule="nonzero" fill="#cccccc" stroke="none" />
    <path d="M 461 1336  L 461 1111.6  L 706.25 1009.5999999999999  L 1049.6 1221.5628252788104  L 1245.8000000000002 1070.8  L 1442 1221.5628252788104  L 1442 1336  L 461 1336  " fill-rule="nonzero" fill="#169bd5" stroke="none" />
  </g>
</svg>