<?xml version="1.0" encoding="utf-8"?>
<svg version="1.1" xmlns:xlink="http://www.w3.org/1999/xlink" width="47px" height="47px" xmlns="http://www.w3.org/2000/svg">
  <g transform="matrix(1 0 0 1 -669 -2115 )">
    <path d="M 692.5 2115  C 705.66 2115  716 2125.34  716 2138.5  C 716 2151.66  705.66 2162  692.5 2162  C 679.34 2162  669 2151.66  669 2138.5  C 669 2125.34  679.34 2115  692.5 2115  Z " fill-rule="nonzero" fill="#ffffff" stroke="none" />
    <path d="M 692.5 2115.5  C 705.38 2115.5  715.5 2125.62  715.5 2138.5  C 715.5 2151.38  705.38 2161.5  692.5 2161.5  C 679.62 2161.5  669.5 2151.38  669.5 2138.5  C 669.5 2125.62  679.62 2115.5  692.5 2115.5  Z " stroke-width="1" stroke="#797979" fill="none" />
  </g>
</svg>