<?xml version="1.0" encoding="utf-8"?>
<svg version="1.1" xmlns:xlink="http://www.w3.org/1999/xlink" width="566px" height="170px" xmlns="http://www.w3.org/2000/svg">
  <g transform="matrix(1 0 0 1 -72 -106 )">
    <path d="M 72 106  L 638 106  L 638 276  L 72 276  L 72 106  " fill-rule="nonzero" fill="#cccccc" stroke="none" />
    <path d="M 84 118  L 626 118  L 626 264  L 84 264  L 84 118  " fill-rule="nonzero" fill="#ffffff" stroke="none" />
    <path d="M 379.07 157  C 371.93 157  366.32 151.39  366.32 144.25  C 366.32 137.11  371.93 131.5  379.07 131.5  C 386.21 131.5  391.82 137.11  391.82 144.25  C 391.82 151.39  386.21 157  379.07 157  " fill-rule="nonzero" fill="#cccccc" stroke="none" />
    <path d="M 89 260  L 89 184.64999999999998  L 222.25 150.39999999999998  L 408.8 235.31095406360424  L 515.4000000000001 170.95  L 622 235.31095406360424  L 622 260  L 89 260  " fill-rule="nonzero" fill="#169bd5" stroke="none" />
  </g>
</svg>