<?xml version="1.0" encoding="utf-8"?>
<svg version="1.1" xmlns:xlink="http://www.w3.org/1999/xlink" width="218px" height="112px" xmlns="http://www.w3.org/2000/svg">
  <g transform="matrix(1 0 0 1 -56 -218 )">
    <path d="M 56 218  L 274 218  L 274 330  L 56 330  L 56 218  " fill-rule="nonzero" fill="#cccccc" stroke="none" />
    <path d="M 64 226  L 266 226  L 266 322  L 64 322  L 64 226  " fill-rule="nonzero" fill="#ffffff" stroke="none" />
    <path d="M 177.76000000000002 251.60000000000002  C 173.056 251.60000000000002  169.36 247.90400000000002  169.36 243.20000000000002  C 169.36 238.496  173.056 234.8  177.76000000000002 234.8  C 182.46400000000003 234.8  186.16000000000003 238.496  186.16000000000003 243.20000000000002  C 186.16000000000003 247.90400000000002  182.46400000000003 251.60000000000002  177.76000000000002 251.60000000000002  " fill-rule="nonzero" fill="#cccccc" stroke="none" />
    <path d="M 67 319  L 67 269.5  L 116 247  L 184.6 291.25688073394497  L 223.8 260.5  L 263 291.25688073394497  L 263 319  L 67 319  " fill-rule="nonzero" fill="#169bd5" stroke="none" />
  </g>
</svg>