<?xml version="1.0" encoding="utf-8"?>
<svg version="1.1" xmlns:xlink="http://www.w3.org/1999/xlink" width="229px" height="229px" xmlns="http://www.w3.org/2000/svg">
  <g transform="matrix(1 0 0 1 -1610 -208 )">
    <path d="M 1724.5 208  C 1788.62 208  1839 258.38  1839 322.5  C 1839 386.62  1788.62 437  1724.5 437  C 1660.38 437  1610 386.62  1610 322.5  C 1610 258.38  1660.38 208  1724.5 208  Z " fill-rule="nonzero" fill="#ffffff" stroke="none" />
    <path d="M 1724.5 208.5  C 1788.34 208.5  1838.5 258.65999999999997  1838.5 322.5  C 1838.5 386.34000000000003  1788.34 436.5  1724.5 436.5  C 1660.66 436.5  1610.5 386.34000000000003  1610.5 322.5  C 1610.5 258.65999999999997  1660.66 208.5  1724.5 208.5  Z " stroke-width="1" stroke="#797979" fill="none" />
  </g>
</svg>