<?xml version="1.0" encoding="utf-8"?>
<svg version="1.1" xmlns:xlink="http://www.w3.org/1999/xlink" width="603px" height="404px" xmlns="http://www.w3.org/2000/svg">
  <g transform="matrix(1 0 0 1 -267 -46 )">
    <path d="M 267 46  L 870 46  L 870 450  L 267 450  L 267 46  " fill-rule="nonzero" fill="#cccccc" stroke="none" />
    <path d="M 295 74  L 842 74  L 842 422  L 295 422  L 295 74  " fill-rule="nonzero" fill="#ffffff" stroke="none" />
    <path d="M 610.8599999999999 167.2  C 593.8919999999999 167.2  580.56 153.868  580.56 136.89999999999998  C 580.56 119.93199999999999  593.8919999999999 106.6  610.8599999999999 106.6  C 627.828 106.6  641.16 119.93199999999999  641.16 136.89999999999998  C 641.16 153.868  627.828 167.2  610.8599999999999 167.2  " fill-rule="nonzero" fill="#cccccc" stroke="none" />
    <path d="M 305 412  L 305 231.6  L 436.75 149.59999999999997  L 621.2 280.14726368159205  L 726.6 198.79999999999998  L 832 280.14726368159205  L 832 412  L 305 412  " fill-rule="nonzero" fill="#169bd5" stroke="none" />
  </g>
</svg>